<svg xmlns="http://www.w3.org/2000/svg" xmlns:xlink="http://www.w3.org/1999/xlink" width="143" height="268" viewBox="0 0 143 268">
  <defs>
    <clipPath id="clip-path">
      <rect id="Rectangle_93" data-name="Rectangle 93" width="143" height="268" transform="translate(1594.764 254.72)" fill="#fff" stroke="#707070" stroke-width="1"/>
    </clipPath>
  </defs>
  <g id="Mask_Group_2" data-name="Mask Group 2" transform="translate(-1594.764 -254.72)" clip-path="url(#clip-path)">
    <g id="Group_35" data-name="Group 35" transform="translate(1615.173 208.101)">
      <rect id="Rectangle_79" data-name="Rectangle 79" width="44.986" height="44.986" rx="5" transform="translate(46.189 107.08) rotate(45)" fill="#fff"/>
      <rect id="Rectangle_80" data-name="Rectangle 80" width="44.986" height="44.986" rx="5" transform="translate(128.287 118.077) rotate(45)" fill="#fff"/>
      <rect id="Rectangle_81" data-name="Rectangle 81" width="44.986" height="44.986" rx="5" transform="translate(31.81 163.802) rotate(45)" fill="#fff"/>
      <rect id="Rectangle_82" data-name="Rectangle 82" width="44.986" height="44.986" rx="5" transform="translate(67.868 199.86) rotate(45)" fill="#fff"/>
      <rect id="Rectangle_83" data-name="Rectangle 83" width="44.986" height="44.986" rx="5" transform="translate(82.246 143.137) rotate(45)" fill="#fff"/>
      <rect id="Rectangle_84" data-name="Rectangle 84" width="44.986" height="44.986" rx="5" transform="translate(81.311 0) rotate(45)" fill="#fff"/>
      <rect id="Rectangle_85" data-name="Rectangle 85" width="44.986" height="44.986" rx="5" transform="translate(117.293 35.982) rotate(45)" fill="#fff"/>
      <rect id="Rectangle_86" data-name="Rectangle 86" width="44.986" height="44.986" transform="translate(153.351 72.039) rotate(45)" fill="#fff"/>
      <rect id="Rectangle_87" data-name="Rectangle 87" width="44.986" height="44.986" rx="5" transform="translate(118.228 179.119) rotate(45)" fill="#fff"/>
      <rect id="Rectangle_88" data-name="Rectangle 88" width="44.986" height="44.986" rx="5" transform="translate(103.849 235.841) rotate(45)" fill="#fff"/>
      <rect id="Rectangle_89" data-name="Rectangle 89" width="44.986" height="44.986" rx="5" transform="translate(47.203 250.296) rotate(45)" fill="#fff"/>
      <rect id="Rectangle_90" data-name="Rectangle 90" width="44.986" height="44.986" rx="5" transform="translate(83.184 286.278) rotate(45)" fill="#fff"/>
      <rect id="Rectangle_91" data-name="Rectangle 91" width="44.986" height="44.986" transform="translate(139.907 271.899) rotate(45)" fill="#fff"/>
      <rect id="Rectangle_92" data-name="Rectangle 92" width="44.986" height="44.986" transform="translate(154.285 215.177) rotate(45)" fill="#fff"/>
    </g>
  </g>
</svg>
