<svg xmlns="http://www.w3.org/2000/svg" width="56" height="56" viewBox="0 0 56 56">
  <g id="Branding_icon" data-name="Branding icon" transform="translate(2 2)">
    <g id="Ellipse_5" data-name="Ellipse 5" fill="none" stroke="#c7c7c7" stroke-width="2">
      <circle cx="26" cy="26" r="26" stroke="none"/>
      <circle cx="26" cy="26" r="27" fill="none"/>
    </g>
    <g id="Group_11" data-name="Group 11" transform="translate(8.337 9.896)">
      <path id="Path_20" data-name="Path 20" d="M186.771,192.539a4.219,4.219,0,0,1,1.322-3.475,7.334,7.334,0,0,0,2.159-3.8,6.893,6.893,0,1,0-13.523-2.675,6.634,6.634,0,0,0,1.861,6.16,4.99,4.99,0,0,1,1.569,2.737c.049.325.048.658.075,1.057a3.807,3.807,0,0,0-2.788-.038,2.192,2.192,0,0,1-2.528-2.616,5.56,5.56,0,0,0,.252-1.549,2.843,2.843,0,0,0-1.747-2.458,2.18,2.18,0,0,1-.775-3.277,2.326,2.326,0,0,1,.762-.618,2.928,2.928,0,0,0,1.57-3.793,2.2,2.2,0,0,1,2.794-2.769,2.878,2.878,0,0,0,3.745-1.567,2.212,2.212,0,0,1,3.937.01,2.879,2.879,0,0,0,3.752,1.553,2.2,2.2,0,0,1,2.783,2.782,2.86,2.86,0,0,0,1.521,3.723,2.217,2.217,0,0,1-.007,3.987,2.872,2.872,0,0,0-1.523,3.687,2.208,2.208,0,0,1-2.153,2.948,1.252,1.252,0,0,1-.355-.059A3.321,3.321,0,0,0,186.771,192.539Z" transform="translate(-166.046 -166.481)" fill="#c7c7c7"/>
      <path id="Path_21" data-name="Path 21" d="M227.359,317.842h6.531c0,1.019.024,2.026-.013,3.031a.619.619,0,0,1-.69.581c-.468,0-.935,0-1.306,0a4.945,4.945,0,0,1-.652.892,1.151,1.151,0,0,1-.715.187c-.526,0-.867-.385-1.011-1.079-.473,0-.954.009-1.435,0a.657.657,0,0,1-.706-.666C227.35,319.821,227.359,318.856,227.359,317.842Z" transform="translate(-213.186 -290.571)" fill="#c7c7c7"/>
      <path id="Path_22" data-name="Path 22" d="M274.61,164.68a1.457,1.457,0,1,1-1.455-1.472A1.433,1.433,0,0,1,274.61,164.68Z" transform="translate(-251.085 -158.403)" fill="#c7c7c7"/>
      <path id="Path_23" data-name="Path 23" d="M165.81,209.757a1.425,1.425,0,0,1-1.466,1.454,1.457,1.457,0,1,1,1.466-1.454Z" transform="translate(-158.092 -196.942)" fill="#c7c7c7"/>
      <path id="Path_24" data-name="Path 24" d="M318.263,272.008a1.457,1.457,0,1,1-1.467,1.453A1.439,1.439,0,0,1,318.263,272.008Z" transform="translate(-289.631 -251.396)" fill="#c7c7c7"/>
      <path id="Path_25" data-name="Path 25" d="M209.425,166.176a1.452,1.452,0,1,1,1.465-1.449A1.411,1.411,0,0,1,209.425,166.176Z" transform="translate(-196.632 -158.458)" fill="#c7c7c7"/>
      <path id="Path_26" data-name="Path 26" d="M316.794,209.709a1.452,1.452,0,1,1,1.424,1.489A1.417,1.417,0,0,1,316.794,209.709Z" transform="translate(-289.63 -196.94)" fill="#c7c7c7"/>
      <path id="Path_27" data-name="Path 27" d="M165.866,273.545a1.452,1.452,0,1,1-1.45-1.464A1.411,1.411,0,0,1,165.866,273.545Z" transform="translate(-158.148 -251.458)" fill="#c7c7c7"/>
      <path id="Path_28" data-name="Path 28" d="M243.492,150.142a1.088,1.088,0,1,1-1.111,1.053A1.063,1.063,0,0,1,243.492,150.142Z" transform="translate(-226.027 -147.235)" fill="#c7c7c7"/>
      <path id="Path_29" data-name="Path 29" d="M149.832,243.749a1.089,1.089,0,1,1,1.047,1.117A1.06,1.06,0,0,1,149.832,243.749Z" transform="translate(-146.925 -226.338)" fill="#c7c7c7"/>
      <path id="Path_30" data-name="Path 30" d="M337.106,243.786a1.089,1.089,0,1,1-1.07-1.1A1.063,1.063,0,0,1,337.106,243.786Z" transform="translate(-305.13 -226.338)" fill="#c7c7c7"/>
      <path id="Path_31" data-name="Path 31" d="M179.008,178.244a1.089,1.089,0,0,1-1.111,1.07,1.106,1.106,0,0,1-1.091-1.1,1.124,1.124,0,0,1,1.141-1.1A1.107,1.107,0,0,1,179.008,178.244Z" transform="translate(-169.98 -170.287)" fill="#c7c7c7"/>
      <path id="Path_32" data-name="Path 32" d="M308.863,179.316a1.091,1.091,0,0,1-1.093-1.088,1.107,1.107,0,0,1,1.079-1.115,1.121,1.121,0,0,1,1.124,1.119A1.107,1.107,0,0,1,308.863,179.316Z" transform="translate(-281.917 -170.288)" fill="#c7c7c7"/>
      <path id="Path_33" data-name="Path 33" d="M179.007,309.176a1.107,1.107,0,0,1-1.089,1.1,1.123,1.123,0,0,1-1.114-1.129,1.107,1.107,0,0,1,1.12-1.074A1.09,1.09,0,0,1,179.007,309.176Z" transform="translate(-169.979 -282.225)" fill="#c7c7c7"/>
      <path id="Path_34" data-name="Path 34" d="M307.774,309.2a1.085,1.085,0,0,1,1.066-1.114,1.107,1.107,0,0,1,1.135,1.057,1.124,1.124,0,0,1-1.1,1.145A1.106,1.106,0,0,1,307.774,309.2Z" transform="translate(-281.92 -282.228)" fill="#c7c7c7"/>
      <path id="Path_35" data-name="Path 35" d="M326.9,165.286a.736.736,0,0,1-.719-.772.7.7,0,0,1,.747-.686.694.694,0,0,1,.711.76A.713.713,0,0,1,326.9,165.286Z" transform="translate(-297.649 -158.932)" fill="#c7c7c7"/>
      <path id="Path_36" data-name="Path 36" d="M204.344,145.775a.717.717,0,0,1,.729.755.682.682,0,0,1-.719.7.7.7,0,0,1-.74-.69A.752.752,0,0,1,204.344,145.775Z" transform="translate(-192.893 -143.502)" fill="#c7c7c7"/>
      <path id="Path_37" data-name="Path 37" d="M287.452,146.5a.71.71,0,0,1-.758.724.7.7,0,0,1-.7-.728.713.713,0,0,1,.7-.731A.733.733,0,0,1,287.452,146.5Z" transform="translate(-263.303 -143.495)" fill="#c7c7c7"/>
      <path id="Path_38" data-name="Path 38" d="M344.941,205.382a.729.729,0,0,1,.035-1.458.733.733,0,0,1,.717.726A.718.718,0,0,1,344.941,205.382Z" transform="translate(-313.084 -193.203)" fill="#c7c7c7"/>
      <path id="Path_39" data-name="Path 39" d="M146.951,287.13a.693.693,0,0,1-.7.723.743.743,0,0,1-.753-.741.72.72,0,0,1,.723-.717A.685.685,0,0,1,146.951,287.13Z" transform="translate(-143.22 -263.693)" fill="#c7c7c7"/>
      <path id="Path_40" data-name="Path 40" d="M326.909,327.945a.725.725,0,0,1-.725-.717.733.733,0,0,1,.75-.741.729.729,0,0,1-.026,1.458Z" transform="translate(-297.657 -297.96)" fill="#c7c7c7"/>
      <path id="Path_41" data-name="Path 41" d="M246.331,130.837a.725.725,0,1,1-.722-.7A.692.692,0,0,1,246.331,130.837Z" transform="translate(-228.166 -130.133)" fill="#c7c7c7"/>
      <path id="Path_42" data-name="Path 42" d="M164.98,164.558a.715.715,0,0,1-.753.731.73.73,0,0,1,0-1.458A.712.712,0,0,1,164.98,164.558Z" transform="translate(-158.626 -158.936)" fill="#c7c7c7"/>
      <path id="Path_43" data-name="Path 43" d="M131.281,245.9a.712.712,0,0,1-.732.752.729.729,0,1,1,.732-.752Z" transform="translate(-129.823 -228.478)" fill="#c7c7c7"/>
      <path id="Path_44" data-name="Path 44" d="M361.4,245.869a.729.729,0,1,1-.742-.742A.7.7,0,0,1,361.4,245.869Z" transform="translate(-326.512 -228.421)" fill="#c7c7c7"/>
      <path id="Path_45" data-name="Path 45" d="M164.258,327.946a.7.7,0,0,1-.7-.728.727.727,0,1,1,1.454.006A.7.7,0,0,1,164.258,327.946Z" transform="translate(-158.655 -297.96)" fill="#c7c7c7"/>
      <path id="Path_46" data-name="Path 46" d="M344.99,286.221a.72.72,0,0,1,.719.766.729.729,0,1,1-1.456-.065A.719.719,0,0,1,344.99,286.221Z" transform="translate(-313.1 -263.544)" fill="#c7c7c7"/>
      <path id="Path_47" data-name="Path 47" d="M146.92,204.738a.709.709,0,0,1-.742.738.734.734,0,0,1-.717-.729.747.747,0,0,1,.755-.743A.712.712,0,0,1,146.92,204.738Z" transform="translate(-143.189 -193.272)" fill="#c7c7c7"/>
    </g>
  </g>
</svg>
