<svg xmlns="http://www.w3.org/2000/svg" xmlns:xlink="http://www.w3.org/1999/xlink" width="325" height="925" viewBox="0 0 325 925">
  <defs>
    <clipPath id="clip-path">
      <rect id="Rectangle_34" data-name="Rectangle 34" width="325" height="925" transform="translate(1595)" fill="#fff" stroke="#707070" stroke-width="1"/>
    </clipPath>
  </defs>
  <g id="Design_top" data-name="Design top" transform="translate(-1595)" opacity="0.6" clip-path="url(#clip-path)" style="mix-blend-mode: soft-light;isolation: isolate">
    <g id="Group_14" data-name="Group 14" transform="translate(656.632 587.712) rotate(-45)">
      <rect id="Rectangle_27" data-name="Rectangle 27" width="83.067" height="41.502" transform="translate(1106.076 595.588)" fill="#f1f1f1" stroke="#444" stroke-miterlimit="10" stroke-width="2"/>
      <rect id="Rectangle_28" data-name="Rectangle 28" width="83.067" height="41.502" transform="translate(1230.645 595.588)" fill="#f1f1f1" stroke="#444" stroke-miterlimit="10" stroke-width="2"/>
      <path id="Path_78" data-name="Path 78" d="M789.362,521.442v83.067h-41.5v-41.5H623.229V479.94h41.565v41.5Z" transform="translate(524.349 489.418)" fill="#f1f1f1" stroke="#444" stroke-miterlimit="10" stroke-width="2"/>
      <path id="Path_79" data-name="Path 79" d="M782.792,440.49V565.058H741.227V481.992H616.658v-41.5Z" transform="translate(489.418 279.667)" fill="#f1f1f1" stroke="#444" stroke-miterlimit="10" stroke-width="2"/>
      <path id="Path_80" data-name="Path 80" d="M824.294,530.127v41.565H699.725V488.625H658.161v41.5h-41.5V447.06H741.227v83.067Z" transform="translate(489.418 314.599)" fill="#f1f1f1" stroke="#444" stroke-miterlimit="10" stroke-width="2"/>
      <path id="Path_81" data-name="Path 81" d="M859.279,549.857v41.5H776.212v-41.5H693.145v83.067h83.067v41.5H651.643V549.857H610.079V508.292H776.212v-41.5h41.565v83.067Z" transform="translate(454.433 419.501)" fill="#f1f1f1" stroke="#444" stroke-miterlimit="10" stroke-width="2"/>
      <path id="Path_82" data-name="Path 82" d="M874.544,460.21v83.067H832.979v-41.5H749.913v83.067H583.779V543.277H708.41V460.21Z" transform="translate(314.599 384.516)" fill="#f1f1f1" stroke="#444" stroke-miterlimit="10" stroke-width="2"/>
      <path id="Path_83" data-name="Path 83" d="M721.56,563.007v41.5H596.929V479.94h41.565v83.067Z" transform="translate(384.516 489.418)" fill="#f1f1f1" stroke="#444" stroke-miterlimit="10" stroke-width="2"/>
      <path id="Path_84" data-name="Path 84" d="M605.624,578.208h41.5v41.565H564.059V453.64h83.067v41.5h-41.5Z" transform="translate(209.75 349.584)" fill="#f1f1f1" stroke="#444" stroke-miterlimit="10" stroke-width="2"/>
      <path id="Path_85" data-name="Path 85" d="M791.477,440.49V565.058H708.41v83.067H583.779v-41.5h83.067V565.058H583.779v-41.5H749.913V440.49Z" transform="translate(314.599 279.667)" fill="#f1f1f1" stroke="#444" stroke-miterlimit="10" stroke-width="2"/>
      <rect id="Rectangle_29" data-name="Rectangle 29" width="41.565" height="83.067" transform="translate(690.742 927.793)" fill="#f1f1f1" stroke="#444" stroke-miterlimit="10" stroke-width="2"/>
      <path id="Path_86" data-name="Path 86" d="M717.043,447.06v41.565H592.474v83.067H550.909V447.06Z" transform="translate(139.834 314.599)" fill="#f1f1f1" stroke="#444" stroke-miterlimit="10" stroke-width="2"/>
      <path id="Path_87" data-name="Path 87" d="M655.757,460.21v41.565H572.69v83.067h-41.5V460.21Z" transform="translate(34.985 384.516)" fill="#f1f1f1" stroke="#444" stroke-miterlimit="10" stroke-width="2"/>
      <path id="Path_88" data-name="Path 88" d="M929.2,538.758v41.565H596.929V414.19h41.565V538.758Z" transform="translate(384.516 139.834)" fill="#f1f1f1" stroke="#444" stroke-miterlimit="10" stroke-width="2"/>
      <rect id="Rectangle_30" data-name="Rectangle 30" width="41.502" height="124.568" transform="translate(1189.143 554.024)" fill="#f1f1f1" stroke="#444" stroke-miterlimit="10" stroke-width="2"/>
      <path id="Path_89" data-name="Path 89" d="M754.377,387.89v41.565H671.311v83.067h-41.5V387.89Z" transform="translate(559.335 0)" fill="#f1f1f1" stroke="#444" stroke-miterlimit="10" stroke-width="2"/>
      <path id="Path_90" data-name="Path 90" d="M929.2,477.537v41.5H721.56V435.972H638.494v41.565H596.929V394.47H763.062v83.067Z" transform="translate(384.516 34.985)" fill="#f1f1f1" stroke="#444" stroke-miterlimit="10" stroke-width="2"/>
      <rect id="Rectangle_31" data-name="Rectangle 31" width="41.502" height="41.502" transform="translate(1023.01 595.588)" fill="#f1f1f1" stroke="#444" stroke-miterlimit="10" stroke-width="2"/>
      <path id="Path_91" data-name="Path 91" d="M861.34,407.62V573.69H819.776V449.122H612.14V656.757h-41.5V407.62Z" transform="translate(244.735 104.902)" fill="#f1f1f1" stroke="#444" stroke-miterlimit="10" stroke-width="2"/>
      <path id="Path_92" data-name="Path 92" d="M666.845,420.77v41.5h-41.5v83.067H583.779V420.77Z" transform="translate(314.599 174.818)" fill="#f1f1f1" stroke="#444" stroke-miterlimit="10" stroke-width="2"/>
      <path id="Path_93" data-name="Path 93" d="M898.378,731.192h83.067v83.067h-41.5v-41.5H649.24V731.192H566.174v83.067H524.609V689.691H649.24V606.624H773.809v41.5H690.742v83.067H856.876V440.49h207.635v41.5H898.378Z" transform="translate(0 279.667)" fill="#f1f1f1" stroke="#444" stroke-miterlimit="10" stroke-width="2"/>
      <rect id="Rectangle_32" data-name="Rectangle 32" width="41.565" height="41.502" transform="translate(690.742 1052.424)" fill="#f1f1f1" stroke="#444" stroke-miterlimit="10" stroke-width="2"/>
      <rect id="Rectangle_33" data-name="Rectangle 33" width="41.502" height="83.067" transform="translate(566.174 1010.86)" fill="#f1f1f1" stroke="#444" stroke-miterlimit="10" stroke-width="2"/>
    </g>
  </g>
</svg>
