<svg xmlns="http://www.w3.org/2000/svg" xmlns:xlink="http://www.w3.org/1999/xlink" width="184" height="269" viewBox="0 0 184 269">
  <defs>
    <clipPath id="clip-path">
      <rect id="Rectangle_35" data-name="Rectangle 35" width="184" height="269" transform="translate(1736 4854)" fill="#fff" stroke="#707070" stroke-width="1"/>
    </clipPath>
  </defs>
  <g id="Design_bottom" data-name="Design bottom" transform="translate(-1736 -4854)" opacity="0.6" clip-path="url(#clip-path)" style="mix-blend-mode: soft-light;isolation: isolate">
    <g id="Group_13" data-name="Group 13" transform="translate(1381.222 5563.782) rotate(-137)">
      <path id="Path_51" data-name="Path 51" d="M-128.232,532.535V584h-51.46v25.711H-205.4V558.245h51.461v-25.71Z" transform="translate(0 287.314)" fill="#f1f1f1" stroke="#444" stroke-miterlimit="10" stroke-width="2"/>
      <path id="Path_52" data-name="Path 52" d="M-102.482,525.955v51.46h-25.75V551.7h-51.46v25.71H-205.4v-51.46Z" transform="translate(0 268.144)" fill="#f1f1f1" stroke="#444" stroke-miterlimit="10" stroke-width="2"/>
      <path id="Path_53" data-name="Path 53" d="M-102.482,493.085v77.171h-77.21v25.75H-205.4V544.546h77.171V493.085Z" transform="translate(0 172.383)" fill="#f1f1f1" stroke="#444" stroke-miterlimit="10" stroke-width="2"/>
      <path id="Path_54" data-name="Path 54" d="M-101.932,537.965v51.46h-25.711v-25.71H-179.1V486.5h25.711v51.461Z" transform="translate(76.621 153.213)" fill="#f1f1f1" stroke="#444" stroke-miterlimit="10" stroke-width="2"/>
      <path id="Path_55" data-name="Path 55" d="M-128.232,473.365v51.421h-25.71V499.076h-25.75v51.461H-205.4V473.365Z" transform="translate(0 114.931)" fill="#f1f1f1" stroke="#444" stroke-miterlimit="10" stroke-width="2"/>
      <path id="Path_56" data-name="Path 56" d="M-128.232,440.485V543.406h-51.46v25.75H-205.4V517.7h51.461v-77.21Z" transform="translate(0 19.141)" fill="#f1f1f1" stroke="#444" stroke-miterlimit="10" stroke-width="2"/>
      <path id="Path_57" data-name="Path 57" d="M-95.323,564.266v25.75h-77.21V512.8h25.75v51.461Z" transform="translate(95.762 229.834)" fill="#f1f1f1" stroke="#444" stroke-miterlimit="10" stroke-width="2"/>
      <path id="Path_58" data-name="Path 58" d="M-121.623,486.5v25.75h-51.46v51.461h-25.75V486.5Z" transform="translate(19.141 153.213)" fill="#f1f1f1" stroke="#444" stroke-miterlimit="10" stroke-width="2"/>
      <path id="Path_59" data-name="Path 59" d="M-75.632,486.5v77.21h-51.461v-25.75h25.711V512.255H-152.8V486.5Z" transform="translate(153.242 153.213)" fill="#f1f1f1" stroke="#444" stroke-miterlimit="10" stroke-width="2"/>
      <path id="Path_60" data-name="Path 60" d="M-102.482,433.915v25.711h-77.21v51.46h25.75v25.75H-205.4V433.915Z" transform="translate(0 0)" fill="#f1f1f1" stroke="#444" stroke-miterlimit="10" stroke-width="2"/>
      <path id="Path_61" data-name="Path 61" d="M-95.323,532.535V584h-77.21v-25.75h51.461v-25.71Z" transform="translate(95.762 287.314)" fill="#f1f1f1" stroke="#444" stroke-miterlimit="10" stroke-width="2"/>
      <path id="Path_62" data-name="Path 62" d="M-63.621,518.245v25.711h-77.171V492.535h-51.46v-25.75h77.171v51.46Z" transform="translate(38.311 95.762)" fill="#f1f1f1" stroke="#444" stroke-miterlimit="10" stroke-width="2"/>
      <path id="Path_63" data-name="Path 63" d="M-57.012,498.526v25.711h-77.21V472.776h-51.461V447.065h77.21v51.461Z" transform="translate(57.451 38.31)" fill="#f1f1f1" stroke="#444" stroke-miterlimit="10" stroke-width="2"/>
      <path id="Path_64" data-name="Path 64" d="M-95.323,466.785V569.706h-25.75V492.535h-51.461v-25.75Z" transform="translate(95.762 95.762)" fill="#f1f1f1" stroke="#444" stroke-miterlimit="10" stroke-width="2"/>
      <path id="Path_65" data-name="Path 65" d="M-62.453,531.945v51.461h-77.21V506.235h25.75V557.7H-88.2v-25.75Z" transform="translate(191.523 210.693)" fill="#f1f1f1" stroke="#444" stroke-miterlimit="10" stroke-width="2"/>
      <path id="Path_66" data-name="Path 66" d="M-88.782,512.8v51.461h-25.711v-25.71h-51.46V512.8Z" transform="translate(114.932 229.834)" fill="#f1f1f1" stroke="#444" stroke-miterlimit="10" stroke-width="2"/>
      <path id="Path_67" data-name="Path 67" d="M-69.612,512.255v51.461H-95.323v-25.75h-77.21V486.5h25.75v25.75Z" transform="translate(95.762 153.213)" fill="#f1f1f1" stroke="#444" stroke-miterlimit="10" stroke-width="2"/>
      <path id="Path_68" data-name="Path 68" d="M-82.212,506.235V557.7h-25.711v-25.75h-51.46v-25.71Z" transform="translate(134.072 210.693)" fill="#f1f1f1" stroke="#444" stroke-miterlimit="10" stroke-width="2"/>
      <path id="Path_69" data-name="Path 69" d="M-94.772,570.845v25.71h-51.461V519.385h25.711v51.46Z" transform="translate(172.383 249.004)" fill="#f1f1f1" stroke="#444" stroke-miterlimit="10" stroke-width="2"/>
      <path id="Path_70" data-name="Path 70" d="M-55.912,506.235V634.866H-81.623V531.945h-25.75V557.7h-25.711V506.235Z" transform="translate(210.693 210.693)" fill="#f1f1f1" stroke="#444" stroke-miterlimit="10" stroke-width="2"/>
      <path id="Path_71" data-name="Path 71" d="M-95.912,512.8v77.211h-25.711v-51.46h-51.46v25.71h-25.75V512.8Z" transform="translate(19.141 229.834)" fill="#f1f1f1" stroke="#444" stroke-miterlimit="10" stroke-width="2"/>
      <path id="Path_72" data-name="Path 72" d="M-89.332,532.535v25.71h-25.75v51.461h-77.171V584h51.46v-51.46Z" transform="translate(38.311 287.314)" fill="#f1f1f1" stroke="#444" stroke-miterlimit="10" stroke-width="2"/>
      <path id="Path_73" data-name="Path 73" d="M-63.071,539.1v25.75H-88.782v25.711h-77.171V564.855h51.46V539.1Z" transform="translate(114.932 306.455)" fill="#f1f1f1" stroke="#444" stroke-miterlimit="10" stroke-width="2"/>
      <path id="Path_74" data-name="Path 74" d="M-88.2,525.955V628.876h-51.461V603.165h25.75V551.7h-25.75v-25.75Z" transform="translate(191.523 268.144)" fill="#f1f1f1" stroke="#444" stroke-miterlimit="10" stroke-width="2"/>
      <path id="Path_75" data-name="Path 75" d="M-23.592,584v25.711H-126.513V532.535h25.75V584Z" transform="translate(229.834 287.314)" fill="#f1f1f1" stroke="#444" stroke-miterlimit="10" stroke-width="2"/>
      <path id="Path_76" data-name="Path 76" d="M-61.9,532.535V584h-51.461v-25.75h25.75v-25.71Z" transform="translate(268.144 287.314)" fill="#f1f1f1" stroke="#444" stroke-miterlimit="10" stroke-width="2"/>
      <path id="Path_77" data-name="Path 77" d="M41.019,603.165v25.711H-61.9V551.7h-51.461v-25.75h77.21v77.21Z" transform="translate(268.144 268.144)" fill="#f1f1f1" stroke="#444" stroke-miterlimit="10" stroke-width="2"/>
    </g>
  </g>
</svg>
