<svg xmlns="http://www.w3.org/2000/svg" width="17.838" height="18.108" viewBox="0 0 17.838 18.108">
  <g id="Icon_feather-headphones" data-name="Icon feather-headphones" transform="translate(-3.5 -3.5)">
    <path id="Path_179" data-name="Path 179" d="M4.5,17.923V12.554A7.987,7.987,0,0,1,12.419,4.5a7.987,7.987,0,0,1,7.919,8.054v5.369" transform="translate(0 0)" fill="none" stroke="#000" stroke-linecap="round" stroke-linejoin="round" stroke-width="2"/>
    <path id="Path_180" data-name="Path 180" d="M20.338,25.474a1.775,1.775,0,0,1-1.76,1.79H17.7a1.775,1.775,0,0,1-1.76-1.79V22.79A1.775,1.775,0,0,1,17.7,21h2.64Zm-15.838,0a1.775,1.775,0,0,0,1.76,1.79h.88a1.775,1.775,0,0,0,1.76-1.79V22.79A1.775,1.775,0,0,0,7.14,21H4.5Z" transform="translate(0 -6.656)" fill="none" stroke="#000" stroke-linecap="round" stroke-linejoin="round" stroke-width="2"/>
  </g>
</svg>
