<svg xmlns="http://www.w3.org/2000/svg" width="27.271" height="27.271" viewBox="0 0 27.271 27.271">
  <path id="Icon_simple-linkedin" data-name="Icon simple-linkedin" d="M23.234,23.24H19.2V16.912c0-1.509-.031-3.451-2.1-3.451-2.106,0-2.427,1.642-2.427,3.34V23.24H10.626V10.227H14.5V12h.052a4.256,4.256,0,0,1,3.829-2.1c4.092,0,4.849,2.693,4.849,6.2V23.24ZM6.064,8.446A2.345,2.345,0,1,1,8.41,6.1,2.343,2.343,0,0,1,6.064,8.446ZM8.089,23.24H4.04V10.227h4.05ZM25.254,0H2.012A1.988,1.988,0,0,0,0,1.965V25.307a1.988,1.988,0,0,0,2.012,1.965H25.251a2,2,0,0,0,2.02-1.965V1.965A2,2,0,0,0,25.251,0Z" fill="#f1f1f1"/>
</svg>
