<svg xmlns="http://www.w3.org/2000/svg" width="56" height="56" viewBox="0 0 56 56">
  <g id="Interface_icon" data-name="Interface icon" transform="translate(2 2)">
    <g id="Ellipse_4" data-name="Ellipse 4" fill="none" stroke="#c7c7c7" stroke-width="2">
      <circle cx="26" cy="26" r="26" stroke="none"/>
      <circle cx="26" cy="26" r="27" fill="none"/>
    </g>
    <g id="Group_10" data-name="Group 10" transform="translate(8 16)">
      <path id="Icon_ionic-ios-laptop" data-name="Icon ionic-ios-laptop" d="M31.5,25.84V9.077a1.217,1.217,0,0,0-1.209-1.2H5.709A1.212,1.212,0,0,0,4.5,9.077V25.84H1.118a2.042,2.042,0,0,0,1.329,1.6,9.329,9.329,0,0,0,3.459.689H30.094a9.313,9.313,0,0,0,3.4-.619,2.121,2.121,0,0,0,1.392-1.666H31.5ZM18,8.438a.281.281,0,1,1-.281.281A.282.282,0,0,1,18,8.438ZM5.766,9.577H30.234a.141.141,0,0,1,.141.141V24.574a.141.141,0,0,1-.141.141H5.766a.141.141,0,0,1-.141-.141V9.717A.137.137,0,0,1,5.766,9.577ZM20.974,26.4H15.026a.838.838,0,0,1-.682-.527h7.313A.7.7,0,0,1,20.974,26.4Z" transform="translate(-1.118 -7.875)" fill="#c7c7c7"/>
      <g id="Group_9" data-name="Group 9" transform="translate(26 1)">
        <rect id="Rectangle_22" data-name="Rectangle 22" width="8" height="14" rx="1" transform="translate(1 1)" fill="#232323"/>
        <path id="Icon_awesome-mobile-alt" data-name="Icon awesome-mobile-alt" d="M8.11,0H1.431A1.431,1.431,0,0,0,0,1.431v12.4a1.431,1.431,0,0,0,1.431,1.431H8.11a1.431,1.431,0,0,0,1.431-1.431V1.431A1.431,1.431,0,0,0,8.11,0ZM4.77,14.311a.954.954,0,1,1,.954-.954A.953.953,0,0,1,4.77,14.311Zm3.339-3.22a.359.359,0,0,1-.358.358H1.789a.359.359,0,0,1-.358-.358v-9.3a.359.359,0,0,1,.358-.358H7.752a.359.359,0,0,1,.358.358Z" fill="#c7c7c7"/>
      </g>
    </g>
  </g>
</svg>
