<svg xmlns="http://www.w3.org/2000/svg" width="56" height="56" viewBox="0 0 56 56">
  <g id="UI_UX_icon" data-name="UI/UX icon" transform="translate(2 2)">
    <g id="Ellipse_6" data-name="Ellipse 6" fill="none" stroke="#c7c7c7" stroke-width="2">
      <circle cx="26" cy="26" r="26" stroke="none"/>
      <circle cx="26" cy="26" r="27" fill="none"/>
    </g>
    <path id="Path_48" data-name="Path 48" d="M397.268,1612H368.482" transform="translate(-357 -1586)" fill="none" stroke="#707070" stroke-width="1"/>
    <path id="Path_49" data-name="Path 49" d="M392.709,1602.291,383,1612l-9.709-9.709" transform="translate(-357 -1586)" fill="none" stroke="#707070" stroke-width="1"/>
    <path id="Path_50" data-name="Path 50" d="M383,1598v13.941" transform="translate(-357 -1586)" fill="none" stroke="#707070" stroke-width="1"/>
    <path id="Icon_material-person" data-name="Icon material-person" d="M14.4,14.4a4.2,4.2,0,1,0-4.2-4.2A4.2,4.2,0,0,0,14.4,14.4Zm0,2.1c-2.8,0-8.4,1.406-8.4,4.2v2.1H22.792v-2.1C22.792,17.9,17.2,16.5,14.4,16.5Z" transform="translate(11.604 16.604)" fill="#c7c7c7"/>
    <circle id="Ellipse_7" data-name="Ellipse 7" cx="3" cy="3" r="3" transform="translate(8 23)" fill="#c7c7c7"/>
    <circle id="Ellipse_8" data-name="Ellipse 8" cx="3" cy="3" r="3" transform="translate(23 7)" fill="#c7c7c7"/>
    <circle id="Ellipse_9" data-name="Ellipse 9" cx="3" cy="3" r="3" transform="translate(37 23)" fill="#c7c7c7"/>
    <circle id="Ellipse_10" data-name="Ellipse 10" cx="3" cy="3" r="3" transform="translate(34 12)" fill="#c7c7c7"/>
    <circle id="Ellipse_11" data-name="Ellipse 11" cx="3" cy="3" r="3" transform="translate(12 12)" fill="#c7c7c7"/>
  </g>
</svg>
